<svg xmlns="http://www.w3.org/2000/svg" width="17" height="16"><path fill-rule="evenodd" fill="#fff" d="M13.581 12.6a.166.166 0 0 1-.077.101.173.173 0 0 1-.08.021.184.184 0 0 1-.047-.007l-5.824-1.759a.163.163 0 0 1-.108-.107.16.16 0 0 1 .032-.149l5.797-6.804-7.547 6.397a.16.16 0 0 1-.157.034L.608 8.762a.16.16 0 0 1-.024-.296L16.262.517a.164.164 0 0 1 .174.016.16.16 0 0 1 .056.164L13.581 12.6zm-5.933-.397l1.609.491a.165.165 0 0 1 .105.098.155.155 0 0 1-.016.14l-1.609 2.522a.164.164 0 0 1-.136.075.163.163 0 0 1-.045-.007.16.16 0 0 1-.117-.154v-3.012c0-.051.024-.099.066-.129a.159.159 0 0 1 .143-.024z"/></svg>